<svg aria-hidden="true" style="position: absolute; width: 0; height: 0; overflow: hidden;" version="1.1" xmlns="http://www.w3.org/2000/svg" xmlns:xlink="http://www.w3.org/1999/xlink">
<defs>
<symbol id="icon-arrow-down-16x16" viewBox="0 0 32 32">
<path stroke="#fff" style="stroke: var(--color1, #fff)" stroke-linejoin="round" stroke-linecap="round" stroke-miterlimit="4" stroke-width="3" d="M8 12l8 8 8-8"></path>
</symbol>
<symbol id="icon-arrow-down-20x20" viewBox="0 0 32 32">
<path stroke="#fff" style="stroke: var(--color1, #fff)" stroke-linejoin="round" stroke-linecap="round" stroke-miterlimit="4" stroke-width="3.2" d="M8 12l8 8 8-8"></path>
</symbol>
<symbol id="icon-arrow-left-18x18" viewBox="0 0 32 32">
<path stroke-linejoin="round" stroke-linecap="round" stroke-miterlimit="4" stroke-width="3.5556" d="M20 24l-8-8 8-8"></path>
</symbol>
<symbol id="icon-arrow-right-18x18" viewBox="0 0 32 32">
<path stroke-linejoin="round" stroke-linecap="round" stroke-miterlimit="4" stroke-width="3.5556" d="M12 24l8-8-8-8"></path>
</symbol>
<symbol id="icon-arrow-up-16x16" viewBox="0 0 32 32">
<path stroke="#fff" style="stroke: var(--color1, #fff)" stroke-linejoin="round" stroke-linecap="round" stroke-miterlimit="4" stroke-width="3" d="M8 20l8-8 8 8"></path>
</symbol>
<symbol id="icon-arrow-up-20x20" viewBox="0 0 32 32">
<path stroke="#fff" style="stroke: var(--color1, #fff)" stroke-linejoin="round" stroke-linecap="round" stroke-miterlimit="4" stroke-width="3.2" d="M8 20l8-8 8 8"></path>
</symbol>
<symbol id="icon-close-24x24" viewBox="0 0 32 32">
<path stroke-linejoin="round" stroke-linecap="round" stroke-miterlimit="4" stroke-width="2.6667" d="M24 8l-16 16"></path>
<path stroke-linejoin="round" stroke-linecap="round" stroke-miterlimit="4" stroke-width="2.6667" d="M8 8l16 16"></path>
</symbol>
<symbol id="icon-close-28x28" viewBox="0 0 32 32">
<path stroke-linejoin="round" stroke-linecap="round" stroke-miterlimit="4" stroke-width="3.4286" d="M24 8l-16 16"></path>
<path stroke-linejoin="round" stroke-linecap="round" stroke-miterlimit="4" stroke-width="3.4286" d="M8 8l16 16"></path>
</symbol>
<symbol id="icon-edit-14x14" viewBox="0 0 32 32">
<path stroke-linejoin="round" stroke-linecap="round" stroke-miterlimit="4" stroke-width="2.9714" d="M22.666 4c0.35-0.35 0.766-0.628 1.224-0.817s0.948-0.287 1.443-0.287c0.495 0 0.986 0.098 1.443 0.287s0.873 0.467 1.223 0.817 0.628 0.766 0.818 1.223c0.189 0.458 0.287 0.948 0.287 1.443s-0.098 0.986-0.287 1.443c-0.189 0.458-0.467 0.873-0.818 1.223l-18 18-7.333 2 2-7.333 18-18z"></path>
</symbol>
<symbol id="icon-edit-16x16" viewBox="0 0 32 32">
<path stroke-linejoin="round" stroke-linecap="round" stroke-miterlimit="4" stroke-width="3.6" d="M22.667 4c0.35-0.35 0.766-0.628 1.223-0.817s0.948-0.287 1.443-0.287c0.495 0 0.986 0.098 1.443 0.287s0.873 0.467 1.224 0.817c0.35 0.35 0.628 0.766 0.817 1.223s0.287 0.948 0.287 1.443-0.097 0.986-0.287 1.443c-0.189 0.458-0.467 0.873-0.817 1.223l-18 18-7.333 2 2-7.333 18-18z"></path>
</symbol>
<symbol id="icon-eye-off-20x20" viewBox="0 0 32 32">
<path stroke-linejoin="round" stroke-linecap="round" stroke-miterlimit="4" stroke-width="2.88" d="M23.92 23.92c-2.279 1.737-5.055 2.7-7.92 2.747-9.333 0-14.667-10.667-14.667-10.667 1.659-3.091 3.959-5.791 6.747-7.92M13.2 5.653c0.918-0.215 1.857-0.322 2.8-0.32 9.333 0 14.667 10.667 14.667 10.667-0.809 1.514-1.775 2.94-2.88 4.253M18.826 18.827c-0.366 0.393-0.808 0.708-1.298 0.927s-1.020 0.336-1.557 0.346-1.071-0.089-1.569-0.291c-0.498-0.201-0.951-0.5-1.33-0.88s-0.679-0.832-0.88-1.33c-0.201-0.498-0.3-1.032-0.29-1.569s0.127-1.067 0.346-1.557 0.534-0.932 0.927-1.298"></path>
<path stroke-linejoin="round" stroke-linecap="round" stroke-miterlimit="4" stroke-width="2.88" d="M1.333 1.333l29.333 29.333"></path>
</symbol>
<symbol id="icon-eye-open-20x20" viewBox="0 0 32 32">
<path stroke-linejoin="round" stroke-linecap="round" stroke-miterlimit="4" stroke-width="2.88" d="M1.333 16c0 0 5.333-10.667 14.667-10.667s14.667 10.667 14.667 10.667c0 0-5.333 10.667-14.667 10.667s-14.667-10.667-14.667-10.667z"></path>
<path stroke-linejoin="round" stroke-linecap="round" stroke-miterlimit="4" stroke-width="2.88" d="M16 20c2.209 0 4-1.791 4-4s-1.791-4-4-4c-2.209 0-4 1.791-4 4s1.791 4 4 4z"></path>
</symbol>
<symbol id="icon-glass-38x38" viewBox="0 0 32 32">
<path style="fill: var(--color2, #9be1a0)" d="M27.568 5.226c-0.097-0.321-0.26-0.616-0.479-0.868s-0.488-0.452-0.79-0.589c-0.3-0.142-0.627-0.214-0.958-0.21h-18.63c-0.331-0.019-0.661 0.049-0.958 0.197-0.308 0.139-0.582 0.345-0.803 0.604-0.219 0.251-0.382 0.546-0.479 0.866-0.1 0.318-0.131 0.654-0.091 0.984l2.123 18.377c0.142 1.258 0.738 2.415 1.67 3.255 0.911 0.839 2.096 1.307 3.327 1.313h9.062c1.235-0.005 2.424-0.473 3.34-1.313 0.92-0.848 1.508-2.004 1.657-3.255l1.152-10.331v-0.157l0.893-7.876c0.050-0.332 0.037-0.671-0.039-0.998zM14.492 25.375h-1.295c-0.839-0.047-1.637-0.38-2.266-0.945-0.626-0.572-1.038-1.347-1.165-2.192l-0.311-2.258c-0.040-0.344 0.055-0.69 0.264-0.965s0.515-0.455 0.854-0.503c0.338-0.048 0.682 0.040 0.957 0.246s0.46 0.512 0.515 0.854l0.311 2.232c0.035 0.244 0.154 0.467 0.337 0.63 0.181 0.168 0.415 0.266 0.66 0.276h1.295c0.343 0 0.673 0.138 0.915 0.384s0.379 0.58 0.379 0.928-0.136 0.682-0.379 0.928c-0.243 0.246-0.572 0.384-0.915 0.384h-0.155zM24.849 13.259c-2.732 0.538-5.062 0.643-7.535-1.313-3.068-2.455-6.784-1.667-10.357-0.381l-0.647-5.566c-0.013-0.056-0.013-0.114 0-0.171 0.018-0.055 0.049-0.105 0.091-0.144 0.031-0.048 0.076-0.085 0.129-0.105 0.051-0.015 0.105-0.015 0.155 0h18.798c0.049 0.028 0.092 0.063 0.13 0.105 0.039 0.039 0.065 0.091 0.078 0.144 0.020 0.060 0.020 0.124 0 0.184l-0.842 7.246z"></path>
</symbol>
<symbol id="icon-glass-44x45" viewBox="0 0 32 32">
<path style="fill: var(--color2, #9be1a0)" d="M27.311 5.226c-0.095-0.321-0.254-0.616-0.468-0.868s-0.477-0.452-0.772-0.589c-0.293-0.142-0.613-0.214-0.937-0.21h-18.216c-0.323-0.019-0.646 0.049-0.937 0.197-0.301 0.139-0.57 0.345-0.785 0.604-0.214 0.251-0.374 0.546-0.468 0.866-0.098 0.318-0.128 0.654-0.089 0.984l2.076 18.377c0.139 1.258 0.722 2.415 1.633 3.255 0.891 0.839 2.050 1.307 3.253 1.313h8.861c1.207-0.005 2.37-0.473 3.266-1.313 0.899-0.848 1.475-2.004 1.62-3.255l1.127-10.331v-0.158l0.873-7.876c0.049-0.332 0.036-0.671-0.038-0.998zM14.525 25.375h-1.266c-0.82-0.047-1.601-0.38-2.215-0.945-0.612-0.572-1.015-1.347-1.139-2.192l-0.304-2.258c-0.039-0.344 0.053-0.691 0.258-0.965s0.504-0.455 0.835-0.503 0.667 0.040 0.936 0.246c0.269 0.206 0.45 0.512 0.503 0.854l0.304 2.232c0.034 0.244 0.151 0.467 0.329 0.63 0.177 0.168 0.406 0.266 0.646 0.276h1.266c0.336 0 0.658 0.138 0.895 0.384s0.371 0.58 0.371 0.928-0.133 0.682-0.371 0.928c-0.237 0.246-0.559 0.384-0.895 0.384h-0.152zM24.652 13.259c-2.671 0.538-4.949 0.643-7.367-1.313-3-2.455-6.633-1.667-10.127-0.381l-0.633-5.566c-0.012-0.056-0.012-0.114 0-0.171 0.017-0.055 0.048-0.105 0.089-0.144 0.030-0.048 0.074-0.085 0.127-0.105 0.050-0.015 0.102-0.015 0.152 0h18.38c0.047 0.028 0.090 0.063 0.127 0.105 0.038 0.039 0.063 0.091 0.076 0.144 0.019 0.060 0.019 0.124 0 0.184l-0.823 7.246z"></path>
</symbol>
<symbol id="icon-log-out-16x16" viewBox="0 0 32 32">
<path stroke-linejoin="round" stroke-linecap="round" stroke-miterlimit="4" stroke-width="2.8235" d="M12.235 27.294h-5.020c-0.666 0-1.304-0.264-1.775-0.735s-0.735-1.109-0.735-1.775v-17.569c0-0.666 0.264-1.304 0.735-1.775s1.109-0.735 1.775-0.735h5.020"></path>
<path stroke-linejoin="round" stroke-linecap="round" stroke-miterlimit="4" stroke-width="2.8235" d="M21.019 22.274l6.274-6.275-6.274-6.274"></path>
<path stroke-linejoin="round" stroke-linecap="round" stroke-miterlimit="4" stroke-width="2.8235" d="M27.294 16h-15.059"></path>
</symbol>
<symbol id="icon-minus-40x40" viewBox="0 0 32 32">
<path stroke-linejoin="miter" stroke-linecap="butt" stroke-miterlimit="4" stroke-width="1.2" d="M16 0.6c8.505 0 15.4 6.895 15.4 15.4s-6.895 15.4-15.4 15.4c-8.505 0-15.4-6.895-15.4-15.4s6.895-15.4 15.4-15.4z"></path>
<path stroke-linejoin="round" stroke-linecap="round" stroke-miterlimit="4" stroke-width="1.44" d="M10.286 16h11.429"></path>
</symbol>
<symbol id="icon-minus-43x43" viewBox="0 0 32 32">
<path stroke-linejoin="miter" stroke-linecap="butt" stroke-miterlimit="4" stroke-width="1.1163" d="M16 0.558c8.528 0 15.442 6.914 15.442 15.442s-6.914 15.442-15.442 15.442c-8.528 0-15.442-6.914-15.442-15.442s6.914-15.442 15.442-15.442z"></path>
<path stroke-linejoin="round" stroke-linecap="round" stroke-miterlimit="4" stroke-width="1.3395" d="M10.286 16h11.429"></path>
</symbol>
<symbol id="icon-plus16x16" viewBox="0 0 32 32">
<path stroke="#fff" style="stroke: var(--color1, #fff)" stroke-linejoin="round" stroke-linecap="round" stroke-miterlimit="4" stroke-width="3" d="M16 6.667v18.667"></path>
<path stroke="#fff" style="stroke: var(--color1, #fff)" stroke-linejoin="round" stroke-linecap="round" stroke-miterlimit="4" stroke-width="3" d="M6.667 16h18.667"></path>
</symbol>
<symbol id="icon-plus-24x24" viewBox="0 0 32 32">
<path stroke="#fff" style="stroke: var(--color1, #fff)" stroke-linejoin="round" stroke-linecap="round" stroke-miterlimit="4" stroke-width="2.6667" d="M16 6.667v18.667"></path>
<path stroke="#fff" style="stroke: var(--color1, #fff)" stroke-linejoin="round" stroke-linecap="round" stroke-miterlimit="4" stroke-width="2.6667" d="M6.667 16h18.667"></path>
</symbol>
<symbol id="icon-plus-40x40" viewBox="0 0 32 32">
<path stroke-linejoin="miter" stroke-linecap="butt" stroke-miterlimit="4" stroke-width="1.2" d="M16 0.6c8.505 0 15.4 6.895 15.4 15.4s-6.895 15.4-15.4 15.4c-8.505 0-15.4-6.895-15.4-15.4s6.895-15.4 15.4-15.4z"></path>
<path stroke-linejoin="round" stroke-linecap="round" stroke-miterlimit="4" stroke-width="1.44" d="M16 10.286v11.429"></path>
<path stroke-linejoin="round" stroke-linecap="round" stroke-miterlimit="4" stroke-width="1.44" d="M10.286 16h11.429"></path>
</symbol>
<symbol id="icon-plus-43x43" viewBox="0 0 32 32">
<path stroke-linejoin="miter" stroke-linecap="butt" stroke-miterlimit="4" stroke-width="1.1163" d="M16 0.558c8.528 0 15.442 6.914 15.442 15.442s-6.914 15.442-15.442 15.442c-8.528 0-15.442-6.914-15.442-15.442s6.914-15.442 15.442-15.442z"></path>
<path stroke-linejoin="round" stroke-linecap="round" stroke-miterlimit="4" stroke-width="1.3395" d="M16 10.286v11.429"></path>
<path stroke-linejoin="round" stroke-linecap="round" stroke-miterlimit="4" stroke-width="1.3395" d="M10.286 16h11.429"></path>
</symbol>
<symbol id="icon-plus-green-30x30" viewBox="0 0 32 32">
<path style="fill: var(--color2, #9be1a0)" d="M16 0c8.837 0 16 7.163 16 16s-7.163 16-16 16c-8.837 0-16-7.163-16-16s7.163-16 16-16z"></path>
<path stroke="#323f47" style="stroke: var(--color3, #323f47)" stroke-linejoin="round" stroke-linecap="round" stroke-miterlimit="4" stroke-width="1.6" d="M16 10.286v11.429"></path>
<path stroke="#323f47" style="stroke: var(--color3, #323f47)" stroke-linejoin="round" stroke-linecap="round" stroke-miterlimit="4" stroke-width="1.6" d="M10.286 16h11.429"></path>
</symbol>
<symbol id="icon-settings-16x16" viewBox="0 0 32 32">
<path stroke-linejoin="round" stroke-linecap="round" stroke-miterlimit="4" stroke-width="2.8235" d="M16 19.765c2.079 0 3.765-1.686 3.765-3.765s-1.686-3.765-3.765-3.765c-2.079 0-3.765 1.685-3.765 3.765s1.685 3.765 3.765 3.765z"></path>
<path stroke-linejoin="round" stroke-linecap="round" stroke-miterlimit="4" stroke-width="2.8235" d="M25.286 19.765c-0.167 0.378-0.217 0.798-0.143 1.205s0.268 0.783 0.557 1.078l0.075 0.075c0.233 0.233 0.418 0.51 0.545 0.814s0.191 0.631 0.191 0.961-0.065 0.657-0.191 0.961c-0.126 0.305-0.312 0.581-0.545 0.815s-0.51 0.418-0.815 0.545c-0.305 0.126-0.631 0.191-0.961 0.191s-0.656-0.065-0.961-0.191c-0.305-0.126-0.582-0.312-0.815-0.545l-0.075-0.075c-0.296-0.289-0.671-0.483-1.078-0.557s-0.827-0.024-1.205 0.143c-0.371 0.159-0.688 0.423-0.911 0.76s-0.343 0.731-0.344 1.135v0.213c0 0.666-0.264 1.304-0.735 1.775s-1.109 0.735-1.775 0.735-1.304-0.264-1.775-0.735c-0.471-0.471-0.735-1.109-0.735-1.775v-0.113c-0.010-0.415-0.144-0.818-0.386-1.156s-0.579-0.595-0.969-0.739c-0.379-0.167-0.798-0.217-1.205-0.143s-0.783 0.268-1.079 0.557l-0.075 0.075c-0.233 0.233-0.51 0.418-0.815 0.545s-0.631 0.191-0.961 0.191c-0.33 0-0.656-0.065-0.961-0.191s-0.581-0.311-0.815-0.545c-0.233-0.233-0.418-0.51-0.545-0.815s-0.191-0.631-0.191-0.961c0-0.33 0.065-0.657 0.191-0.961s0.311-0.581 0.545-0.815l0.075-0.075c0.289-0.296 0.483-0.671 0.557-1.078s0.024-0.827-0.143-1.205c-0.159-0.371-0.423-0.688-0.76-0.911s-0.731-0.343-1.135-0.344h-0.213c-0.666 0-1.304-0.264-1.775-0.735s-0.735-1.109-0.735-1.775c0-0.666 0.264-1.304 0.735-1.775s1.109-0.735 1.775-0.735h0.113c0.415-0.010 0.818-0.144 1.156-0.386s0.595-0.579 0.739-0.969c0.167-0.379 0.217-0.798 0.143-1.205s-0.268-0.783-0.557-1.078l-0.075-0.075c-0.233-0.233-0.418-0.51-0.545-0.815s-0.191-0.631-0.191-0.961c0-0.33 0.065-0.656 0.191-0.961s0.311-0.582 0.545-0.815c0.233-0.233 0.51-0.418 0.815-0.545s0.631-0.191 0.961-0.191c0.33 0 0.656 0.065 0.961 0.191s0.582 0.311 0.815 0.545l0.075 0.075c0.296 0.289 0.671 0.483 1.078 0.557s0.827 0.024 1.205-0.143h0.1c0.371-0.159 0.688-0.423 0.911-0.76s0.343-0.731 0.344-1.135v-0.213c0-0.666 0.264-1.304 0.735-1.775s1.109-0.735 1.775-0.735c0.666 0 1.304 0.264 1.775 0.735s0.735 1.109 0.735 1.775v0.113c0.002 0.404 0.121 0.798 0.344 1.135s0.54 0.601 0.911 0.76c0.378 0.167 0.798 0.217 1.205 0.143s0.783-0.268 1.079-0.557l0.075-0.075c0.233-0.233 0.51-0.418 0.814-0.545s0.631-0.191 0.961-0.191 0.656 0.065 0.961 0.191c0.305 0.126 0.581 0.311 0.814 0.545s0.419 0.51 0.545 0.815 0.191 0.631 0.191 0.961c0 0.33-0.065 0.656-0.191 0.961s-0.312 0.581-0.545 0.815l-0.075 0.075c-0.289 0.296-0.483 0.671-0.557 1.078s-0.024 0.827 0.143 1.205v0.1c0.159 0.371 0.423 0.688 0.76 0.911s0.731 0.343 1.135 0.344h0.213c0.666 0 1.304 0.264 1.775 0.735s0.735 1.109 0.735 1.775-0.264 1.304-0.735 1.775c-0.471 0.471-1.109 0.735-1.775 0.735h-0.113c-0.404 0.002-0.798 0.121-1.135 0.344s-0.601 0.539-0.76 0.911z"></path>
</symbol>
<symbol id="icon-sleep-20x20" viewBox="0 0 32 32">
<path opacity="0.4" stroke="#323f47" style="stroke: var(--color3, #323f47)" stroke-linejoin="round" stroke-linecap="round" stroke-miterlimit="4" stroke-width="2.88" d="M22.933 18.667c0.369 0 0.554 0 0.704 0.082 0.123 0.068 0.238 0.195 0.293 0.324 0.067 0.157 0.050 0.324 0.016 0.659-0.174 1.733-0.77 3.404-1.744 4.861-1.172 1.754-2.838 3.121-4.787 3.929s-4.094 1.019-6.163 0.607-3.97-1.428-5.462-2.919c-1.492-1.492-2.508-3.392-2.919-5.462s-0.2-4.214 0.607-6.163c0.807-1.949 2.175-3.615 3.929-4.787 1.457-0.974 3.128-1.57 4.861-1.744 0.334-0.034 0.502-0.050 0.659 0.016 0.13 0.055 0.257 0.17 0.324 0.293 0.082 0.15 0.082 0.334 0.082 0.704v8.533c0 0.373 0 0.56 0.073 0.703 0.064 0.125 0.166 0.228 0.291 0.291 0.143 0.073 0.329 0.073 0.703 0.073h8.533z"></path>
<path opacity="0.4" stroke="#9be1a0" style="stroke: var(--color2, #9be1a0)" stroke-linejoin="round" stroke-linecap="round" stroke-miterlimit="4" stroke-width="2.88" d="M18.666 3.733c0-0.369 0-0.554 0.082-0.704 0.068-0.123 0.195-0.238 0.324-0.293 0.157-0.067 0.324-0.050 0.659-0.016 2.438 0.245 4.73 1.323 6.477 3.071s2.827 4.040 3.071 6.478c0.033 0.334 0.050 0.502-0.016 0.659-0.055 0.13-0.17 0.257-0.293 0.324-0.15 0.082-0.334 0.082-0.704 0.082h-8.533c-0.373 0-0.56 0-0.703-0.073-0.125-0.064-0.227-0.166-0.291-0.291-0.073-0.143-0.073-0.329-0.073-0.703v-8.533z"></path>
</symbol>
<symbol id="icon-sleep-24x24" viewBox="0 0 32 32">
<path opacity="0.4" stroke="#323f47" style="stroke: var(--color3, #323f47)" stroke-linejoin="round" stroke-linecap="round" stroke-miterlimit="4" stroke-width="2.6667" d="M22.933 18.667c0.369 0 0.554 0 0.704 0.082 0.123 0.068 0.238 0.195 0.293 0.324 0.067 0.157 0.050 0.324 0.016 0.659-0.174 1.733-0.77 3.404-1.744 4.861-1.172 1.754-2.838 3.121-4.787 3.929s-4.094 1.019-6.163 0.607c-2.069-0.412-3.97-1.427-5.462-2.919s-2.508-3.392-2.919-5.461c-0.412-2.069-0.2-4.214 0.607-6.163s2.175-3.615 3.929-4.787c1.457-0.974 3.128-1.57 4.861-1.744 0.334-0.034 0.502-0.050 0.659 0.016 0.13 0.055 0.257 0.17 0.324 0.293 0.082 0.15 0.082 0.334 0.082 0.704v8.533c0 0.373 0 0.56 0.073 0.703 0.064 0.125 0.166 0.227 0.291 0.291 0.143 0.073 0.329 0.073 0.703 0.073h8.533z"></path>
<path opacity="0.4" stroke="#9be1a0" style="stroke: var(--color2, #9be1a0)" stroke-linejoin="round" stroke-linecap="round" stroke-miterlimit="4" stroke-width="2.6667" d="M18.667 3.733c0-0.369 0-0.554 0.082-0.704 0.068-0.123 0.195-0.238 0.324-0.293 0.157-0.067 0.324-0.050 0.659-0.016 2.438 0.245 4.73 1.323 6.478 3.071s2.826 4.040 3.071 6.478c0.033 0.334 0.050 0.502-0.016 0.659-0.055 0.13-0.17 0.257-0.293 0.324-0.15 0.082-0.334 0.082-0.704 0.082h-8.533c-0.373 0-0.56 0-0.703-0.073-0.125-0.064-0.227-0.166-0.291-0.291-0.073-0.143-0.073-0.329-0.073-0.703v-8.533z"></path>
</symbol>
<symbol id="icon-trash-14x14" viewBox="0 0 32 32">
<path stroke-linejoin="round" stroke-linecap="round" stroke-miterlimit="4" stroke-width="2.9714" d="M12 4h8"></path>
<path stroke-linejoin="round" stroke-linecap="round" stroke-miterlimit="4" stroke-width="2.9714" d="M4 8h24M25.333 8l-0.935 14.026c-0.14 2.104-0.21 3.156-0.665 3.954-0.4 0.702-1.004 1.267-1.731 1.619-0.826 0.4-1.881 0.4-3.99 0.4h-4.025c-2.109 0-3.163 0-3.99-0.4-0.727-0.352-1.331-0.917-1.731-1.619-0.455-0.798-0.525-1.85-0.665-3.954l-0.935-14.026"></path>
</symbol>
<symbol id="icon-trash-16x16" viewBox="0 0 32 32">
<path stroke-linejoin="round" stroke-linecap="round" stroke-miterlimit="4" stroke-width="3" d="M12 4h8"></path>
<path stroke-linejoin="round" stroke-linecap="round" stroke-miterlimit="4" stroke-width="3.6" d="M4 8h24M25.333 8l-0.935 14.026c-0.14 2.104-0.21 3.156-0.665 3.954-0.4 0.702-1.004 1.267-1.731 1.62-0.826 0.4-1.881 0.4-3.99 0.4h-4.025c-2.109 0-3.163 0-3.99-0.4-0.727-0.353-1.331-0.917-1.731-1.62-0.455-0.798-0.525-1.85-0.665-3.954l-0.935-14.026"></path>
</symbol>
<symbol id="icon-upload-18x18" viewBox="0 0 32 32">
<path stroke-linejoin="round" stroke-linecap="round" stroke-miterlimit="4" stroke-width="3.2" d="M28 20v5.333c0 0.707-0.281 1.386-0.781 1.886s-1.178 0.781-1.886 0.781h-18.667c-0.707 0-1.386-0.281-1.886-0.781s-0.781-1.178-0.781-1.886v-5.333"></path>
<path stroke-linejoin="round" stroke-linecap="round" stroke-miterlimit="4" stroke-width="3.2" d="M22.667 10.667l-6.667-6.667-6.667 6.667"></path>
<path stroke-linejoin="round" stroke-linecap="round" stroke-miterlimit="4" stroke-width="3.2" d="M16 4v16"></path>
</symbol>
<symbol id="icon-upload20x20" viewBox="0 0 32 32">
<path stroke-linejoin="round" stroke-linecap="round" stroke-miterlimit="4" stroke-width="2.7429" d="M27.429 19.81v5.079c0 0.674-0.268 1.32-0.744 1.796s-1.122 0.744-1.796 0.744h-17.778c-0.674 0-1.32-0.268-1.796-0.744s-0.744-1.122-0.744-1.796v-5.079"></path>
<path stroke-linejoin="round" stroke-linecap="round" stroke-miterlimit="4" stroke-width="2.7429" d="M22.349 10.921l-6.349-6.349-6.349 6.349"></path>
<path stroke-linejoin="round" stroke-linecap="round" stroke-miterlimit="4" stroke-width="2.7429" d="M16 4.571v15.238"></path>
</symbol>

<symbol id="icon-exclamation-mark-22x22" viewBox="0 0 32 32">
<path d="M13.474 18.545c0.121 1.266 0.328 2.206 0.611 2.827 0.287 0.618 0.796 0.927 1.532 0.927 0.137 0 0.261-0.022 0.383-0.047 0.125 0.025 0.247 0.047 0.386 0.047 0.734 0 1.244-0.308 1.53-0.927 0.285-0.62 0.488-1.561 0.611-2.827l0.653-9.771c0.122-1.905 0.184-3.271 0.184-4.101 0-1.129-0.295-2.010-0.886-2.643-0.593-0.632-1.372-0.948-2.337-0.948-0.052 0-0.090 0.012-0.14 0.014-0.048-0.002-0.087-0.014-0.137-0.014-0.967 0-1.745 0.316-2.337 0.948s-0.888 1.515-0.888 2.643c0 0.83 0.060 2.196 0.184 4.101l0.652 9.77zM16.025 25.87c-0.937 0-1.733 0.295-2.394 0.886s-0.992 1.31-0.992 2.153c0 0.951 0.335 1.701 1 2.244 0.668 0.544 1.447 0.816 2.338 0.816 0.906 0 1.697-0.268 2.373-0.806 0.675-0.536 1.012-1.289 1.012-2.254 0-0.843-0.323-1.561-0.969-2.153s-1.436-0.887-2.37-0.887z"></path>
</symbol>
<symbol id="icon-radio-on-20x20" viewBox="0 0 32 32">
<path stroke-linejoin="miter" stroke-linecap="butt" stroke-miterlimit="4" stroke-width="2.4" d="M30.8 16c0 8.174-6.626 14.8-14.8 14.8s-14.8-6.626-14.8-14.8c0-8.174 6.626-14.8 14.8-14.8s14.8 6.626 14.8 14.8z"></path>
<path d="M22.856 16c0 3.787-3.070 6.857-6.857 6.857s-6.857-3.070-6.857-6.857c0-3.787 3.070-6.857 6.857-6.857s6.857 3.070 6.857 6.857z"></path>
</symbol>
<symbol id="icon-radio-off-20x20" viewBox="0 0 32 32">
<path stroke-linejoin="miter" stroke-linecap="butt" stroke-miterlimit="4" stroke-width="2.4" d="M30.8 16c0 8.174-6.626 14.8-14.8 14.8s-14.8-6.626-14.8-14.8c0-8.174 6.626-14.8 14.8-14.8s14.8 6.626 14.8 14.8z"></path>
</symbol>
</defs>
</svg>